<?xml version="1.0" ?><svg enable-background="new 0 0 204 208" id="twitch" version="1.1" viewBox="0 0 204 208" xml:space="preserve" xmlns="http://www.w3.org/2000/svg" xmlns:xlink="http://www.w3.org/1999/xlink"><g><path d="M200,0H18c-1.4219,0-2.7383,0.7539-3.4551,1.9844l-14,24C0.1875,26.5977,0,27.293,0,28v148   c0,2.2109,1.791,4,4,4h44v24c0,2.2109,1.791,4,4,4h28c0.9883,0,1.9414-0.3672,2.6758-1.0273L112.6465,180H150   c1.0039,0,1.9707-0.3789,2.709-1.0547l50-46C203.5312,132.1875,204,131.1172,204,130V4C204,1.7891,202.209,0,200,0z M172,116.3438   L148.3438,140H104c-1.0605,0-2.0781,0.4219-2.8281,1.1719L84,158.3438V144c0-2.2109-1.791-4-4-4H40V28h132V116.3438z" fill="#1C71DA"/><path d="M20.2969,8L8,29.082V172h44c2.209,0,4,1.7891,4,4v24h22.4648l29.9707-26.9727   c0.7344-0.6602,1.6875-1.0273,2.6758-1.0273h37.3281L196,128.2461V8H20.2969z M172,116.3438L148.3438,140H104   c-1.0605,0-2.0781,0.4219-2.8281,1.1719L84,158.3438V144c0-2.2109-1.791-4-4-4H40V28h132V116.3438z" fill="#5CB0FF"/><path d="M176,20H36c-2.209,0-4,1.7891-4,4v120c0,2.2109,1.791,4,4,4h40v20c0,1.6172,0.9746,3.0781,2.4688,3.6953   C78.9648,171.9023,79.4844,172,80,172c1.041,0,2.0625-0.4062,2.8281-1.1719L105.6562,148H150c1.0605,0,2.0781-0.4219,2.8281-1.1719   l26-26c0.75-0.75,1.1719-1.7656,1.1719-2.8281V24C180,21.7891,178.209,20,176,20z M172,116.3438L148.3438,140H104   c-1.0605,0-2.0781,0.4219-2.8281,1.1719L84,158.3438V144c0-2.2109-1.791-4-4-4H40V28h132V116.3438z" fill="#1C71DA"/><path d="M84,112h16c2.209,0,4-1.7891,4-4V56c0-2.2109-1.791-4-4-4H84c-2.209,0-4,1.7891-4,4v52   C80,110.2109,81.791,112,84,112z" fill="#1C71DA"/><rect fill="#5CB0FF" height="44" width="8" x="88" y="60"/><path d="M124,112h16c2.209,0,4-1.7891,4-4V56c0-2.2109-1.791-4-4-4h-16c-2.209,0-4,1.7891-4,4v52   C120,110.2109,121.791,112,124,112z" fill="#1C71DA"/><rect fill="#5CB0FF" height="44" width="8" x="128" y="60"/></g><path d="M54.1759,90.5146c-1.0239,0-2.0474-0.3906-2.8286-1.1719c-1.562-1.5615-1.562-4.0947,0-5.6562  l14.1421-14.1416c1.5635-1.5625,4.0957-1.5615,5.6572,0c1.562,1.5615,1.562,4.0947,0,5.6562L57.0045,89.3428  C56.2233,90.124,55.1994,90.5146,54.1759,90.5146z" fill="#FF5D5D"/><path d="M68.318,90.5146c-1.0239,0-2.0474-0.3906-2.8286-1.1719L51.3473,75.2012  c-1.562-1.5615-1.562-4.0947,0-5.6562c1.5625-1.5625,4.0947-1.5625,5.6572,0l14.1421,14.1416c1.562,1.5615,1.562,4.0947,0,5.6562  C70.3654,90.124,69.3419,90.5146,68.318,90.5146z" fill="#FF5D5D"/><path d="M176.1759,74.5146c-7.7197,0-14-6.2803-14-14s6.2803-14,14-14s14,6.2803,14,14  S183.8957,74.5146,176.1759,74.5146z M176.1759,54.5146c-3.3086,0-6,2.6914-6,6s2.6914,6,6,6s6-2.6914,6-6  S179.4845,54.5146,176.1759,54.5146z" fill="#00D40B"/><path d="M133.4894,161.1426L133.4894,161.1426c-1.061,0-2.0786-0.4219-2.8286-1.1719l-11.3135-11.3145  c-1.562-1.5615-1.562-4.0947,0-5.6562l11.3135-11.3135c1.5625-1.5625,4.0952-1.5625,5.6567,0L147.6315,143  c0.7505,0.75,1.1719,1.7676,1.1719,2.8281s-0.4214,2.0781-1.1714,2.8281l-11.314,11.3145  C135.568,160.7207,134.5504,161.1426,133.4894,161.1426z M127.8327,145.8281l5.6567,5.6572l5.6572-5.6572l-5.6572-5.6562  L127.8327,145.8281z" fill="#FFC504"/></svg>