<svg class="teamwork-brand-mark" xmlns="http://www.w3.org/2000/svg" viewBox="0 0 144.433 121.251">
  <title>teamwork-mark</title>
  <path class="shape-t" d="M15.38,24.9a10.07,10.07,0,0,0-3.56,7.34c-.45,5.85.21,10-1,10.85-1.86,1.38-5.49-.83-8.6,2A6.69,6.69,0,0,0-.01,50.48a7.77,7.77,0,0,0,3,6.19c3.76,2.87,6,1.3,8,3.46a5.1,5.1,0,0,1,.94,3.47c-.23,10-.16,33,0,34.59.26,3,.79,15.8,6.81,20s11.91,3.23,18.7,2c6.98-1.22,23.75-4.08,23.75-4.08-4.72-2-7.33-4-9.43-6.85a16.37,16.37,0,0,1-2.29-6.86c-.4-3.66-1.51-36.68-1.49-37.33,0-.82.06-2.72,3.27-2.65a54.479,54.479,0,0,0,5.49.07c1.62-.2,3.3-2.42,3.3-5.05,0-5.67-6-6.85-6.88-6.91s-4.41-.55-5.35-2.22c-1.4-2.5-.76-6.94-1-9.27a15.12,15.12,0,0,0-3.19-7.93,11.49,11.49,0,0,0-4.43-3.5,50.08,50.08,0,0,0-16.61-4.5C19.71,22.92,17.56,23.24,15.38,24.9ZM23.7.925c4.175-2.411,10.092.02,13.215,5.43s2.27,11.749-1.905,14.16-10.092-.02-13.215-5.43S19.523,3.336,23.7.925Z" transform="translate(0.022 0.006)" fill="#65d656"/>
  <path class="shape-w" d="M71.275,10.365c3.755-2.168,9.075.018,11.883,4.882S85.2,25.812,81.445,27.98,72.37,27.962,69.562,23.1,67.521,12.533,71.275,10.365Zm70.375,56.2c-1.42-11.8-2.93-20.58-2.93-20.58a8.43,8.43,0,0,0-5.53-6.71,28.63,28.63,0,0,0-6.45-1.17c-4.69-.51-4.61,4.17-4.44,6.17.41,4.79,5.11,51.69,5,53a1.36,1.36,0,0,1-2.28.73c-.59-.95-5.55-47.39-5.77-48.71a9.65,9.65,0,0,0-6.17-8,44.81,44.81,0,0,0-9.32-1.75c-.64,0-3.54-.15-5.16,2.09a7.68,7.68,0,0,0-1.24,4.71c.27,3.65,3.5,45.38,4.16,55.09.07,1-2,2.2-2.66.74-.77-1.74-5.67-52.75-6-55.25-.25-1.86-.55-9.81-5.12-12.71-3.48-2.21-13.7-4.63-17.37-4-5.18.44-8.15,4.14-7.63,16.19.47,11.07,2,39.23,2.77,45.64.36,3,1.34,10.59,3.79,13.84s5.09,5.36,11.17,5.87,22.24-3,26.14-3.38c0,0,27.33-4.81,29.35-5.25,1.84-.4,8.27-1.4,8.45-11.6C144.47,86.46,142.84,76.42,141.65,66.57Zm-39.4-44.251c3.338-1.927,8.069.015,10.565,4.339s1.814,9.391-1.525,11.319-8.069-.015-10.565-4.339S98.912,24.247,102.251,22.319Zm21.438-1.4c3.338-1.927,8.069.015,10.565,4.339s1.814,9.391-1.525,11.319-8.069-.015-10.565-4.339S120.35,22.844,123.689,20.917Z" transform="translate(0.022 0.006)" fill="#3b93f7"/>
</svg>
