<svg data-v-1084b650="" xmlns="http://www.w3.org/2000/svg" viewBox="0 0 300 300"><!----> <!----> <rect data-v-1084b650="" fill="#FF6906" x="0" y="0" width="300px" height="300px" class="logo-background-square"></rect> <!----> <g data-v-1084b650="" id="6bf52f5a-3c3b-73f9-81c2-b7504d05b145" fill="#ffffff" transform="matrix(2.8,0,0,2.8,93.17449350357056,128.93000593185425)"><path d="M0.69 3.00L4.23 3.00L4.23 3.00Q5.96 3.00 5.96 4.84L5.96 4.84L5.96 6.65L5.96 6.65Q5.96 8.50 4.23 8.50L4.23 8.50L2.65 8.50L2.65 12.05L0.69 12.05L0.69 3.00ZM4.00 6.87L4.00 6.87L4.00 4.62L4.00 4.62Q4.00 4.51 3.93 4.42L3.93 4.42L3.93 4.42Q3.85 4.34 3.74 4.34L3.74 4.34L2.65 4.34L2.65 7.15L3.74 7.15L3.74 7.15Q3.85 7.15 3.93 7.07L3.93 7.07L3.93 7.07Q4.00 6.99 4.00 6.87ZM9.24 9.81L10.29 3.00L12.03 3.00L13.08 9.81L13.86 3.00L15.76 3.00L14.29 12.05L12.07 12.05L11.16 6.50L10.25 12.05L8.02 12.05L6.55 3.00L8.46 3.00L9.24 9.81ZM18.58 2.86L20.44 2.86L20.44 2.86Q22.18 2.86 22.18 4.70L22.18 4.70L22.18 12.05L20.22 12.05L20.22 9.02L18.80 9.02L18.80 12.05L16.84 12.05L16.84 4.70L16.84 4.70Q16.84 2.86 18.58 2.86L18.58 2.86ZM18.80 4.47L18.80 7.50L20.22 7.50L20.22 4.47L20.22 4.47Q20.22 4.35 20.14 4.27L20.14 4.27L20.14 4.27Q20.06 4.19 19.95 4.19L19.95 4.19L19.07 4.19L19.07 4.19Q18.96 4.19 18.88 4.27L18.88 4.27L18.88 4.27Q18.80 4.35 18.80 4.47L18.80 4.47ZM28.20 2.86L30.06 2.86L30.06 2.86Q31.79 2.86 31.79 4.70L31.79 4.70L31.79 12.05L29.83 12.05L29.83 9.02L28.42 9.02L28.42 12.05L26.46 12.05L26.46 4.70L26.46 4.70Q26.46 2.86 28.20 2.86L28.20 2.86ZM28.42 4.47L28.42 7.50L29.83 7.50L29.83 4.47L29.83 4.47Q29.83 4.35 29.76 4.27L29.76 4.27L29.76 4.27Q29.68 4.19 29.57 4.19L29.57 4.19L28.69 4.19L28.69 4.19Q28.57 4.19 28.50 4.27L28.50 4.27L28.50 4.27Q28.42 4.35 28.42 4.47L28.42 4.47ZM35.27 10.53L36.29 5.22L38.08 5.22L39.10 10.53L39.90 5.22L41.72 5.22L40.22 12.05L37.95 12.05L37.18 7.84L36.41 12.05L34.15 12.05L32.65 5.22L34.47 5.22L35.27 10.53ZM45.92 5.73L45.92 5.22L47.50 5.22L47.50 12.05L45.92 12.05L45.92 11.55L45.92 11.55Q45.49 12.19 44.48 12.19L44.48 12.19L44.18 12.19L44.18 12.19Q42.45 12.19 42.45 10.35L42.45 10.35L42.45 6.93L42.45 6.93Q42.45 5.08 44.18 5.08L44.18 5.08L44.48 5.08L44.48 5.08Q45.49 5.08 45.92 5.73L45.92 5.73ZM45.63 10.57L45.63 10.57L45.63 6.71L45.63 6.71Q45.63 6.59 45.55 6.51L45.55 6.51L45.55 6.51Q45.47 6.43 45.36 6.43L45.36 6.43L44.59 6.43L44.59 6.43Q44.48 6.43 44.40 6.51L44.40 6.51L44.40 6.51Q44.32 6.59 44.32 6.71L44.32 6.71L44.32 10.57L44.32 10.57Q44.32 10.68 44.40 10.77L44.40 10.77L44.40 10.77Q44.48 10.85 44.59 10.85L44.59 10.85L45.36 10.85L45.36 10.85Q45.47 10.85 45.55 10.77L45.55 10.77L45.55 10.77Q45.63 10.68 45.63 10.57ZM51.69 5.08L51.69 5.08L52.05 5.08L52.05 6.90L51.13 6.90L51.13 6.90Q50.65 6.90 50.65 7.39L50.65 7.39L50.65 12.05L48.78 12.05L48.78 5.22L50.48 5.22L50.48 5.88L50.48 5.88Q50.89 5.08 51.69 5.08ZM54.63 5.08L54.92 5.08L54.92 5.08Q55.64 5.08 56.07 5.42L56.07 5.42L56.07 3.00L57.95 3.00L57.95 12.05L56.36 12.05L56.36 11.55L56.36 11.55Q55.93 12.19 54.92 12.19L54.92 12.19L54.63 12.19L54.63 12.19Q52.89 12.19 52.89 10.35L52.89 10.35L52.89 6.93L52.89 6.93Q52.89 5.08 54.63 5.08L54.63 5.08ZM56.07 10.57L56.07 10.57L56.07 6.71L56.07 6.71Q56.07 6.59 55.99 6.51L55.99 6.51L55.99 6.51Q55.92 6.43 55.80 6.43L55.80 6.43L55.03 6.43L55.03 6.43Q54.92 6.43 54.84 6.51L54.84 6.51L54.84 6.51Q54.77 6.59 54.77 6.71L54.77 6.71L54.77 10.57L54.77 10.57Q54.77 10.68 54.84 10.77L54.84 10.77L54.84 10.77Q54.92 10.85 55.03 10.85L55.03 10.85L55.80 10.85L55.80 10.85Q55.92 10.85 55.99 10.77L55.99 10.77L55.99 10.77Q56.07 10.68 56.07 10.57ZM61.00 7.77L62.44 7.77L62.44 7.77Q64.18 7.77 64.18 9.62L64.18 9.62L64.18 10.35L64.18 10.35Q64.18 12.19 62.44 12.19L62.44 12.19L60.89 12.19L60.89 12.19Q59.15 12.19 59.15 10.35L59.15 10.35L59.15 9.91L60.89 9.91L60.89 10.53L60.89 10.53Q60.89 10.64 60.96 10.72L60.96 10.72L60.96 10.72Q61.04 10.81 61.15 10.81L61.15 10.81L62.30 10.81L62.30 10.81Q62.41 10.81 62.49 10.72L62.49 10.72L62.49 10.72Q62.57 10.64 62.57 10.53L62.57 10.53L62.57 9.69L62.57 9.69Q62.57 9.58 62.49 9.49L62.49 9.49L62.49 9.49Q62.41 9.41 62.30 9.41L62.30 9.41L60.86 9.41L60.86 9.41Q59.12 9.41 59.12 7.56L59.12 7.56L59.12 6.93L59.12 6.93Q59.12 5.08 60.86 5.08L60.86 5.08L62.33 5.08L62.33 5.08Q64.06 5.08 64.06 6.93L64.06 6.93L64.06 7.18L62.33 7.18L62.33 6.75L62.33 6.75Q62.33 6.64 62.25 6.55L62.25 6.55L62.25 6.55Q62.17 6.47 62.06 6.47L62.06 6.47L61.00 6.47L61.00 6.47Q60.89 6.47 60.81 6.55L60.81 6.55L60.81 6.55Q60.73 6.64 60.73 6.75L60.73 6.75L60.73 7.49L60.73 7.49Q60.73 7.60 60.81 7.69L60.81 7.69L60.81 7.69Q60.89 7.77 61.00 7.77L61.00 7.77Z"></path></g> <!----> <g data-v-1084b650="" id="c245daf3-3a74-80c1-5145-12773640e9a7" stroke="none" fill="#FFB31D" transform="matrix(0.18659999847412106,0,0,0.18659999847412106,33.00250053405762,122.01000022888184)"><svg xmlns="http://www.w3.org/2000/svg" viewBox="0 0 40 40"><path fill-rule="evenodd" clip-rule="evenodd" d="M34 10.9c.6-.2 1-.8 1-1.4 0-.8-.7-1.5-1.5-1.5S32 8.7 32 9.5c0 .7.4 1.2 1 1.4v5.3c-.1 0-.2-.1-.3-.1C31.3 10.3 26.2 6 20 6 13.8 6 8.7 10.3 7.3 16.1 6 16.4 5 17.6 5 19s1 2.6 2.3 2.9c.5 2 1.4 3.8 2.7 5.4V30s2 4 10 4 10-4 10-4v-2.7c1.3-1.5 2.2-3.4 2.7-5.4C34 21.6 35 20.4 35 19c0-.9-.4-1.7-1-2.2v-5.9zm-2.9 11c-.5 2-1.5 3.7-2.9 5.1-2.1 2.2-5 0-8.2 0-3.2 0-6.2 2.2-8.2 0-1.4-1.4-2.4-3.2-2.9-5.1-.3-1-.4-1.9-.4-2.9s.1-1.9.4-2.9c1.3-5 5.8-6.6 11.1-6.6 5.4 0 9.9 1.7 11.1 6.6.2.9.4 1.9.4 2.9s-.1 1.9-.4 2.9zM20 11.9c-4 0-7.3 1.3-8.3 5-.2.7-.3 1.4-.3 2.1 0 .7.1 1.4.3 2.1l.1.2c2-1.6 5.3-3.4 9.7-3.4-4.2 1.7-6.9 4.1-8.4 6 .3.4.5.7.8 1 .5.5 1.1.7 1.7.7 1.3 0 2.8-.7 4.4-.7 1.6 0 3.1.7 4.4.7.6 0 1.2-.2 1.7-.7 1-1.1 1.8-2.4 2.1-3.8.2-.7.3-1.4.3-2.1 0-.7-.1-1.4-.3-2.1-.9-3.8-4.2-5-8.2-5z"></path></svg></g></svg>